Coordinates
version=1
nRows=13
nColumns=40
inDegrees=yes

Units are S.I. units (second, meters, Newtons, ...)
If the header above contains a line with 'inDegrees', this indicates whether rotational values are in degrees (yes) or radians (no).

endheader
time	pelvis_tilt	pelvis_list	pelvis_rotation	pelvis_tx	pelvis_ty	pelvis_tz	hip_flexion_r	hip_adduction_r	hip_rotation_r	knee_angle_r	knee_angle_r_beta	ankle_angle_r	subtalar_angle_r	mtp_angle_r	hip_flexion_l	hip_adduction_l	hip_rotation_l	knee_angle_l	knee_angle_l_beta	ankle_angle_l	subtalar_angle_l	mtp_angle_l	lumbar_extension	lumbar_bending	lumbar_rotation	arm_flex_r	arm_add_r	arm_rot_r	elbow_flex_r	pro_sup_r	wrist_flex_r	wrist_dev_r	arm_flex_l	arm_add_l	arm_rot_l	elbow_flex_l	pro_sup_l	wrist_flex_l	wrist_dev_l
      0.45000000	     -3.27563666	      7.40693446	    -82.65378304	      0.22806771	      0.86990597	      0.33783657	      4.31358292	      5.56476845	    -14.68951291	     10.15310480	      0.17720511	      1.62516674	      0.00000000	      0.00000000	     31.64424941	     -8.15275254	     -3.71450935	     37.13249651	      0.64808432	     -0.73473195	      0.00000000	      0.00000000	      1.55244147	      2.66252219	      3.30945386	      4.90485609	    -13.36779585	      1.57624369	     49.59159618	     89.24674875	    -27.88436911	      4.03309793	    -14.66927177	    -11.26016424	      9.01230805	     29.21208609	     89.16232928	    -24.89464814	      0.69981661
      0.46000000	     -2.49722013	      6.72058245	    -83.26205383	      0.22795058	      0.87012710	      0.34721005	      2.49079022	      4.98983477	    -14.05692472	      9.56022668	      0.16685743	      2.02408643	      0.00000000	      0.00000000	     30.82578277	     -7.38785829	     -5.20272966	     33.87702871	      0.59126569	     -0.74793438	      0.00000000	      0.00000000	      0.53158154	      1.84681754	      4.09285673	      5.59026387	    -13.54453284	      1.07337981	     50.74760305	     89.24194287	    -27.38098573	      4.46544724	    -14.99493315	    -11.22460678	      7.79652877	     29.18336587	     89.19000691	    -24.82662460	      0.36269930
      0.47000000	     -2.89527110	      6.91653389	    -83.13009913	      0.22838653	      0.86838978	      0.35600096	      1.94783595	      5.48646754	    -14.13363344	      9.29193115	      0.16217479	      2.33938129	      0.00000000	      0.00000000	     31.67620811	     -7.35670938	     -5.58960093	     31.27504477	      0.54585250	     -0.56281084	      0.00000000	      0.00000000	      0.74367106	      2.20381508	      4.07205644	      6.24931474	    -13.81691541	      1.02505384	     51.71046056	     89.24487628	    -27.33783525	      4.36770018	    -15.39611884	    -11.19593394	      7.62906886	     28.90586591	     89.17835638	    -24.86124479	      0.40588295
      0.48000000	     -2.61045933	      6.98005942	    -83.18228720	      0.22912288	      0.86721727	      0.36495995	      1.08632342	      5.25272264	    -14.02483262	      8.82376362	      0.15400373	      2.50616991	      0.00000000	      0.00000000	     31.92754549	     -6.57834235	     -6.06504554	     28.10897241	      0.49059412	     -0.85243331	      0.00000000	      0.00000000	      0.69508657	      1.82376348	      4.40086634	      6.69753201	    -14.01890356	      0.55944237	     52.72261336	     89.23632799	    -27.13359427	      4.51452200	    -15.53185175	    -11.15561722	      7.12803447	     28.49381729	     89.19459041	    -24.92767531	      0.32911320
      0.49000000	     -2.49599400	      6.78177876	    -83.32433408	      0.22956193	      0.86624259	      0.37393625	      0.03299511	      5.23407654	    -13.98281299	      8.53125710	      0.14889853	      2.88110592	      0.00000000	      0.00000000	     31.90728760	     -6.08556055	     -6.62698926	     25.03221771	      0.43689462	     -1.13756653	      0.00000000	      0.00000000	      0.32395709	      1.68217655	      4.66425573	      7.28988619	    -14.17374422	      0.18927779	     53.78161824	     89.24154111	    -26.59131118	      4.81922941	    -15.68804569	    -11.13711415	      6.90464642	     28.18154510	     89.19597411	    -24.99291305	      0.15001186
      0.50000000	     -2.72480669	      6.99294771	    -83.29337702	      0.23035407	      0.86446061	      0.38269736	     -0.48624992	      5.49355591	    -13.93234148	      8.30139863	      0.14488674	      3.05564296	      0.00000000	      0.00000000	     32.49651023	     -5.73686622	     -6.51139543	     22.19115707	      0.38730876	     -1.24284252	      0.00000000	      0.00000000	      0.49956255	      1.87586092	      4.80538839	      7.77441150	    -14.43496171	      0.03867908	     54.71498710	     89.23329759	    -26.41247443	      4.83143935	    -15.81857944	    -11.04417793	      6.66579088	     27.76115789	     89.19584889	    -25.07155458	      0.17184741
      0.51000000	     -2.89539323	      7.17729702	    -83.23224493	      0.23130385	      0.86271268	      0.39156568	     -1.02326194	      5.67706470	    -13.93716101	      8.13157882	      0.14192282	      3.29267622	      0.00000000	      0.00000000	     32.96825865	     -5.31603123	     -6.40404888	     19.35826407	      0.33786545	     -1.56151844	      0.00000000	      0.00000000	      0.61343137	      1.99935824	      4.89127283	      8.20973641	    -14.60183996	     -0.20388198	     55.64455278	     89.23135230	    -26.24367853	      4.84890903	    -15.91780741	    -10.93851023	      6.50227196	     27.36915038	     89.20021950	    -25.13449229	      0.17103122
      0.52000000	     -3.05687412	      7.34579525	    -83.22366224	      0.23217433	      0.86095012	      0.40048417	     -1.55525671	      5.83975290	    -13.94432422	      8.02150476	      0.14000167	      3.51988493	      0.00000000	      0.00000000	     33.39110973	     -4.91839438	     -6.09610489	     16.68545819	      0.29121618	     -1.92403499	      0.00000000	      0.00000000	      0.70559724	      2.11822599	      5.01952844	      8.60860324	    -14.74001045	     -0.43135398	     56.52940870	     89.22721859	    -26.08518529	      4.85085090	    -15.95990653	    -10.85739733	      6.36257856	     26.97692072	     89.20003712	    -25.18515392	      0.17515111
      0.53000000	     -3.12875371	      7.44969763	    -83.17559445	      0.23323155	      0.85930492	      0.40945014	     -2.13580851	      5.89238396	    -13.92031396	      7.99055533	      0.13946150	      3.70010768	      0.00000000	      0.00000000	     33.68369063	     -4.43325700	     -5.59957459	     14.15787291	      0.24710150	     -2.55237841	      0.00000000	      0.00000000	      0.69968330	      2.14747240	      5.11065090	      8.95653273	    -14.80490604	     -0.78094000	     57.42181082	     89.22601040	    -25.86041453	      4.88937706	    -15.90265122	    -10.78398208	      6.27943743	     26.55426057	     89.20122887	    -25.22091781	      0.16031337
      0.54000000	     -3.14841658	      7.31893174	    -83.15843129	      0.23431683	      0.85798331	      0.41866907	     -2.97599521	      5.91549543	    -14.01581402	      7.97630703	      0.13921282	      3.86271857	      0.00000000	      0.00000000	     33.66903163	     -3.97399369	     -5.10823503	     11.90088967	      0.20770971	     -3.05039399	      0.00000000	      0.00000000	      0.41929757	      2.14909630	      5.22771454	      9.25747619	    -14.83840898	     -1.26917744	     58.35872519	     89.22982165	    -24.93620209	      5.26278013	    -15.76214491	    -10.75658876	      6.45175472	     26.10961240	     89.19028392	    -25.26005684	      0.03070674
      0.55000000	     -3.42017559	      7.51653266	    -83.23362300	      0.23526125	      0.85606787	      0.42808005	     -3.39668403	      6.13855723	    -13.92279008	      8.08126714	      0.14104472	      4.02301081	      0.00000000	      0.00000000	     34.10720015	     -3.84929394	     -4.60598310	     10.17917070	      0.17766004	     -3.13206789	      0.00000000	      0.00000000	      0.59975576	      2.38748230	      5.39465637	      9.50560980	    -14.92221946	     -1.31700107	     59.02955523	     89.22393237	    -24.84583246	      5.18562702	    -15.77830321	    -10.64005040	      6.27605561	     25.83483867	     89.18420965	    -25.29719221	      0.08454839
      0.56000000	     -3.55645807	      7.64070663	    -83.29839862	      0.23625761	      0.85438785	      0.43741273	     -3.85124308	      6.20818285	    -13.82930237	      8.28524732	      0.14460485	      4.12325082	      0.00000000	      0.00000000	     34.40974655	     -3.63467249	     -3.80550695	      8.71951580	      0.15218426	     -3.69111417	      0.00000000	      0.00000000	      0.62344051	      2.47184827	      5.56964127	      9.69131800	    -14.88050487	     -1.60545431	     59.71549589	     89.22009233	    -24.70530426	      5.10587442	    -15.65987466	    -10.56152638	      6.13015698	     25.53984921	     89.18788387	    -25.29569513	      0.13398331
      0.57000000	     -3.69034822	      7.73058179	    -83.40223141	      0.23731198	      0.85274223	      0.44716112	     -4.35132511	      6.25797918	    -13.75920480	      8.53819358	      0.14901959	      4.19481024	      0.00000000	      0.00000000	     34.68240630	     -3.50229292	     -3.32382306	      7.77003959	      0.13561277	     -3.76803586	      0.00000000	      0.00000000	      0.66368763	      2.56444264	      5.72910814	      9.83587119	    -14.85016824	     -1.67365953	     60.27493306	     89.21556224	    -24.61248066	      4.99934427	    -15.59133666	    -10.49395187	      6.03035171	     25.32592374	     89.18155769	    -25.28264981	      0.17892925
